<svg xmlns="http://www.w3.org/2000/svg" width="1805.831" height="990.508" viewBox="0 0 1805.831 990.508">
  <g id="グループ_317" data-name="グループ 317" transform="translate(13508.6 -385.37)" opacity="0.298">
    <g id="グループ_314" data-name="グループ 314" transform="translate(-3.013 135.853)">
      <path id="パス_128" data-name="パス 128" d="M72.2,103.371s-14.925.377-23.856-3.1-1.485-20.746-5.042-20.927c-9.611-.487,7.075,25.3-12.213,14.558s.922-21.979-4.271-26.724S21.933,89.463,11.334,79.348,18.2,51.825,15.6,47.267,5.961,67.651,2.958,60.788-3.957,32.04,9.35,24.082,26.821,0,26.821,0,44.042,7.6,61.3,8.951s22.306,13.975,26.48,22.53-22.139-.4-20.977,2.936S90.2,36.1,92.43,49.952s-24.462-2.895-25.624,2.084,25.111-.623,20.977,17.939-16.656-10.4-20.977-2.794C64.658,70.96,77.673,74.535,78.6,82.809S72.2,103.371,72.2,103.371Z" transform="translate(-13373.734 596.237) rotate(150)" fill="#91bc91"/>
      <path id="パス_129" data-name="パス 129" d="M17.976,49.6s-3.689-2.774-8.184-15.175S0,0,0,0" transform="translate(-13412.476 597.796) rotate(150)" fill="none" stroke="#e3e0e0" stroke-linecap="round" stroke-width="2"/>
      <path id="パス_130" data-name="パス 130" d="M3.356,8.187a5.768,5.768,0,0,1-1.528-2.5C.988,3.635,0,0,0,0" transform="matrix(-0.999, -0.035, 0.035, -0.999, -13416.72, 579.293)" fill="none" stroke="#e3e0e0" stroke-linecap="round" stroke-width="2"/>
      <path id="パス_131" data-name="パス 131" d="M3.356,8.187a5.768,5.768,0,0,1-1.528-2.5C.988,3.635,0,0,0,0" transform="matrix(-0.999, -0.035, 0.035, -0.999, -13434.648, 564.24)" fill="none" stroke="#e3e0e0" stroke-linecap="round" stroke-width="2"/>
      <path id="パス_132" data-name="パス 132" d="M3.357,0A5.768,5.768,0,0,0,1.829,2.5C.989,4.552,0,8.186,0,8.186" transform="matrix(-0.469, -0.883, 0.883, -0.469, -13453.195, 580.924)" fill="none" stroke="#e3e0e0" stroke-linecap="round" stroke-width="2"/>
      <path id="パス_133" data-name="パス 133" d="M3.357,0A5.768,5.768,0,0,0,1.829,2.5C.989,4.552,0,8.186,0,8.186" transform="matrix(-0.469, -0.883, 0.883, -0.469, -13432.999, 603.904)" fill="none" stroke="#e3e0e0" stroke-linecap="round" stroke-width="2"/>
    </g>
    <g id="グループ_316" data-name="グループ 316" transform="translate(10.769 -27)">
      <path id="パス_128-2" data-name="パス 128" d="M72.2.012s-14.925-.377-23.856,3.1S46.861,23.855,43.3,24.035c-9.611.487,7.075-25.3-12.213-14.558S32.013,31.457,26.82,36.2,21.931,13.92,11.333,24.035,18.195,51.558,15.6,56.116,5.96,35.732,2.957,42.6-3.958,71.343,9.348,79.3,26.82,103.383,26.82,103.383s17.221-7.6,34.48-8.951S83.606,80.457,87.781,71.9s-22.139.4-20.977-2.936,23.4-1.684,25.624-15.535S67.966,56.325,66.8,51.347s25.111.623,20.977-17.939S71.125,43.8,66.8,36.2C64.657,32.423,77.672,28.848,78.6,20.575S72.2.012,72.2.012Z" transform="translate(-11793.697 965.705) rotate(30)" fill="#91bc91"/>
      <path id="パス_129-2" data-name="パス 129" d="M17.976,0S14.286,2.774,9.792,15.175,0,49.6,0,49.6" transform="translate(-11781.849 1013.841) rotate(30)" fill="none" stroke="#e3e0e0" stroke-linecap="round" stroke-width="2"/>
      <path id="パス_130-2" data-name="パス 130" d="M3.357,0A5.768,5.768,0,0,0,1.829,2.5C.989,4.552,0,8.186,0,8.186" transform="matrix(0.999, -0.035, 0.035, 0.999, -11802.691, 1030.111)" fill="none" stroke="#e3e0e0" stroke-linecap="round" stroke-width="2"/>
      <path id="パス_131-2" data-name="パス 131" d="M3.357,0A5.768,5.768,0,0,0,1.829,2.5C.989,4.552,0,8.186,0,8.186" transform="matrix(0.999, -0.035, 0.035, 0.999, -11784.763, 1015.059)" fill="none" stroke="#e3e0e0" stroke-linecap="round" stroke-width="2"/>
      <path id="パス_132-2" data-name="パス 132" d="M3.357,8.186a5.768,5.768,0,0,1-1.528-2.5C.989,3.634,0,0,0,0" transform="matrix(0.469, -0.883, 0.883, 0.469, -11773.156, 1036.081)" fill="none" stroke="#e3e0e0" stroke-linecap="round" stroke-width="2"/>
      <path id="パス_133-2" data-name="パス 133" d="M3.357,8.186a5.768,5.768,0,0,1-1.528-2.5C.989,3.634,0,0,0,0" transform="matrix(0.469, -0.883, 0.883, 0.469, -11793.353, 1059.061)" fill="none" stroke="#e3e0e0" stroke-linecap="round" stroke-width="2"/>
    </g>
    <g id="グループ_313" data-name="グループ 313" transform="translate(0 205)">
      <path id="パス_134" data-name="パス 134" d="M-14603.982,11304.352c-9.262,3.771-12.5,14.755-8.939,26.229s23.184,19.664,23.184,19.664,14.729-21.675,11.168-33.148S-14594.721,11300.58-14603.982,11304.352Z" transform="translate(1152.132 -10229.265)" fill="rgba(179,84,23,0.99)"/>
      <path id="パス_135" data-name="パス 135" d="M-14603.49,11304.514c-9.7,4.271-13.095,16.706-9.364,29.7s24.286,22.263,24.286,22.263,15.429-24.538,11.7-37.529S-14593.787,11300.244-14603.49,11304.514Z" transform="translate(-30571.748 -5842.306) rotate(-120)" fill="rgba(179,84,23,0.99)"/>
      <path id="パス_136" data-name="パス 136" d="M-14603.093,11304.683c-10.058,4.787-13.574,18.729-9.708,33.29s25.178,24.957,25.178,24.957,16-27.509,12.128-42.071S-14593.034,11299.9-14603.093,11304.683Z" transform="matrix(-0.966, -0.259, 0.259, -0.966, -30470.816, 8306.381)" fill="rgba(179,84,23,0.99)"/>
      <path id="パス_137" data-name="パス 137" d="M-14603.4,11304.437c-9.782,4.033-13.2,15.777-9.441,28.043s24.486,21.024,24.486,21.024,15.556-23.174,11.795-35.441S-14593.619,11300.405-14603.4,11304.437Z" transform="matrix(-0.53, 0.848, -0.848, -0.53, -11549.359, 19510.695)" fill="rgba(179,84,23,0.99)"/>
      <path id="パス_138" data-name="パス 138" d="M-14604.561,11304.189c-8.744,3.28-11.8,12.833-8.439,22.812s21.889,17.1,21.889,17.1,13.906-18.851,10.545-28.83S-14595.814,11300.909-14604.561,11304.189Z" transform="matrix(-0.259, 0.966, -0.966, -0.259, -6262.322, 18135.566)" fill="rgba(179,84,23,0.99)"/>
      <path id="パス_139" data-name="パス 139" d="M-14604.18,11304.293c-9.086,3.594-12.263,14.062-8.77,25s22.743,18.738,22.743,18.738,14.447-20.655,10.955-31.588S-14595.094,11300.7-14604.18,11304.293Z" transform="translate(-6487.06 -15997.019) rotate(-30)" fill="rgba(179,84,23,0.99)"/>
      <path id="パス_142" data-name="パス 142" d="M-14588.422,11314.01c-8.605-.125-18.062-1.959-14.2,9.518s6.765,11.3,14.107,7.413,7.234-5.161,9.054-10.777S-14579.816,11314.135-14588.422,11314.01Z" transform="matrix(-0.966, -0.259, 0.259, -0.966, -30467.625, 8278.865)" fill="#bea5a6"/>
      <g id="グループ_146" data-name="グループ 146" transform="translate(-13511.306 -45.338)">
        <path id="パス_140" data-name="パス 140" d="M-14598.891,11302.939c-7.039,2.641-8.25,9.573-5.545,17.606s11.473,15.376,11.473,15.376-3.8-9.607-6.506-17.641S-14591.85,11300.3-14598.891,11302.939Z" transform="matrix(-0.259, 0.966, -0.966, -0.259, 7237.737, 18194.576)" fill="#ede4b0"/>
        <path id="パス_141" data-name="パス 141" d="M-14600.188,11302.857c-5.71,2.143-6.692,7.768-4.5,14.283s9.308,12.475,9.308,12.475-3.082-7.795-5.278-14.311S-14594.476,11300.715-14600.188,11302.857Z" transform="matrix(-0.643, 0.766, -0.766, -0.643, -634.477, 19625.918)" fill="#ede4b0"/>
      </g>
    </g>
    <g id="グループ_315" data-name="グループ 315" transform="translate(10.768 -257.147)">
      <path id="パス_134-2" data-name="パス 134" d="M-14588.367,11304.352c9.262,3.771,12.5,14.755,8.939,26.229s-23.184,19.664-23.184,19.664-14.729-21.675-11.168-33.148S-14597.629,11300.58-14588.367,11304.352Z" transform="translate(2818.081 -10660.6)" fill="rgba(179,84,23,0.99)"/>
      <path id="パス_135-2" data-name="パス 135" d="M10.845,51.958c-9.7-4.271-13.095-16.706-9.364-29.7S25.767,0,25.767,0,41.2,24.538,37.466,37.529,20.548,56.228,10.845,51.958Z" transform="translate(-11792.549 704.508) rotate(-60)" fill="rgba(179,84,23,0.99)"/>
      <path id="パス_136-2" data-name="パス 136" d="M11.242,58.247C1.185,53.46-2.332,39.518,1.534,24.957S26.712,0,26.712,0s16,27.509,12.128,42.071S21.3,63.034,11.242,58.247Z" transform="matrix(0.966, -0.259, 0.259, 0.966, -11808.626, 681.767)" fill="rgba(179,84,23,0.99)"/>
      <path id="パス_137-2" data-name="パス 137" d="M10.934,49.067C1.151,45.034-2.269,33.29,1.492,21.024S25.979,0,25.979,0,41.534,23.174,37.773,35.441,20.716,53.1,10.934,49.067Z" transform="matrix(0.53, 0.848, -0.848, 0.53, -11788.878, 669.261)" fill="rgba(179,84,23,0.99)"/>
      <path id="パス_138-2" data-name="パス 138" d="M9.774,39.914C1.03,36.634-2.028,27.081,1.335,17.1S23.224,0,23.224,0,37.13,18.851,33.769,28.83,18.521,43.194,9.774,39.914Z" transform="matrix(0.259, 0.966, -0.966, 0.259, -11784.721, 651.798)" fill="rgba(179,84,23,0.99)"/>
      <path id="パス_139-2" data-name="パス 139" d="M10.155,43.733c-9.086-3.594-12.263-14.062-8.77-25S24.129,0,24.129,0,38.576,20.655,35.084,31.588,19.241,47.327,10.155,43.733Z" transform="translate(-11752.705 706.493) rotate(-150)" fill="rgba(179,84,23,0.99)"/>
      <path id="パス_142-2" data-name="パス 142" d="M15.086,19.318C6.48,19.443-2.976,21.277.891,9.8S7.655-1.5,15,2.388s7.234,5.161,9.054,10.777S23.691,19.193,15.086,19.318Z" transform="matrix(0.966, -0.259, 0.259, 0.966, -11793.698, 680.042)" fill="#bea5a6"/>
      <g id="グループ_146-2" data-name="グループ 146" transform="translate(-11811.437 675.864)">
        <path id="パス_140-2" data-name="パス 140" d="M6.876,32.982c-7.039-2.641-8.25-9.573-5.545-17.606S12.8,0,12.8,0,9,9.607,6.3,17.641,13.917,35.623,6.876,32.982Z" transform="matrix(0.259, 0.966, -0.966, 0.259, 32.278, 0)" fill="#ede4b0"/>
        <path id="パス_141-2" data-name="パス 141" d="M5.577,26.758c-5.71-2.143-6.692-7.768-4.5-14.283S10.387,0,10.387,0,7.3,7.795,5.108,14.311,11.29,28.9,5.577,26.758Z" transform="translate(25.665 2.179) rotate(50)" fill="#ede4b0"/>
      </g>
    </g>
  </g>
</svg>
