<svg xmlns="http://www.w3.org/2000/svg" xmlns:xlink="http://www.w3.org/1999/xlink" preserveAspectRatio="none" width="768" height="161.256" viewBox="0 0 768 161.256">
  <defs>
    <linearGradient id="linear-gradient" x1="0.556" y1="0.878" x2="0.556" y2="0.384" gradientUnits="objectBoundingBox">
      <stop offset="0" stop-color="#faf2e8"/>
      <stop offset="1" stop-color="#b2c7b4"/>
    </linearGradient>
    <linearGradient id="linear-gradient-2" x1="0.444" y1="0.878" x2="0.444" y2="0.384" xlink:href="#linear-gradient"/>
  </defs>
  <g id="グループ_322" data-name="グループ 322" transform="translate(0 -11058.744)">
    <path id="パス_173" data-name="パス 173" d="M-2140,19619.512c48,0,47.994-47.512,95.988-47.512s47.994,47.512,95.988,47.512,47.994-47.512,95.988-47.512,47.994,47.512,95.988,47.512,47.994-47.512,95.988-47.512,47.994,47.512,95.988,47.512,55.887-47.512,95.988-47.512c-.071.113,0,79.186,0,79.186h-767.93s-.158-79.283,0-79.186C-2186.853,19572-2188,19619.512-2140,19619.512Z" transform="translate(2236.088 -8431.186)" fill="#715b47"/>
    <g id="グループ_321" data-name="グループ 321" transform="translate(537.91 11059.329)">
      <path id="パス_58" data-name="パス 58" d="M-2040.144,19586.166c2.562,0,14.1,12.408,14.1,25.006s-13.626,13.084-15.117,18.629,8.864,13.059,7.235,13.734-10.87-8.2-9.377-15.666,10.1-1.486,11.73-14.758S-2042.706,19586.166-2040.144,19586.166Z" transform="translate(2072.396 -19567.85)" fill="url(#linear-gradient)"/>
      <path id="パス_57" data-name="パス 57" d="M-2040.27,19586.166c2.562,0,14.1,12.408,14.1,25.006s-13.118,19.318-16.054,28.088,12.154,27.785,10.525,28.463-16.817-18.9-14.578-28.463,12.949-12.877,14.578-26.148S-2042.832,19586.166-2040.27,19586.166Z" transform="translate(2072.522 -19517.051)" fill="#faf2e8"/>
      <path id="パス_61" data-name="パス 61" d="M2.089,0c.858,0,4.724,4.159,4.724,8.379s-4.4,6.474-5.379,9.41S5.506,27.1,4.96,27.328-.675,21,.075,17.789,4.414,13.477,4.96,9.03,1.231,0,2.089,0Z" transform="translate(27.201 127.667) rotate(-65)" fill="#faf2e8"/>
      <path id="パス_62" data-name="パス 62" d="M.862,0A4.467,4.467,0,0,1,2.81,3.457C2.81,5.2,1,6.127.591,7.34s1.68,3.839,1.455,3.934S-.278,8.663.031,7.34s1.79-1.779,2.015-3.615S.508,0,.862,0Z" transform="translate(44.629 136.37) rotate(-65)" fill="#faf2e8"/>
      <path id="パス_65" data-name="パス 65" d="M.862,0A4.467,4.467,0,0,1,2.81,3.457C2.81,5.2,1,6.127.591,7.34s1.68,3.839,1.455,3.934S-.278,8.663.031,7.34s1.79-1.779,2.015-3.615S.508,0,.862,0Z" transform="translate(23.543 143.804) rotate(-65)" fill="#faf2e8"/>
      <path id="パス_66" data-name="パス 66" d="M.862,0A4.467,4.467,0,0,1,2.81,3.457C2.81,5.2,1,6.127.591,7.34s1.68,3.839,1.455,3.934S-.278,8.663.031,7.34s1.79-1.779,2.015-3.615S.508,0,.862,0Z" transform="translate(15.795 121.401) rotate(-65)" fill="#faf2e8"/>
      <path id="パス_63" data-name="パス 63" d="M.863,11.277A4.465,4.465,0,0,0,2.811,7.82C2.811,6.077,1,5.148.591,3.937S2.271.1,2.046,0-.279,2.614.031,3.937,1.821,5.716,2.047,7.55.508,11.277.863,11.277Z" transform="translate(53.664 129.577) rotate(65)" fill="#faf2e8"/>
      <path id="パス_64" data-name="パス 64" d="M.863,11.277A4.465,4.465,0,0,0,2.811,7.82C2.811,6.077,1,5.148.591,3.937S2.271.1,2.046,0-.279,2.614.031,3.937,1.821,5.716,2.047,7.55.508,11.277.863,11.277Z" transform="translate(37.422 144.912) rotate(65)" fill="#faf2e8"/>
      <path id="パス_59" data-name="パス 59" d="M0,10.174S4.612,3.532,10.75,1.487s8.135-2.073,13.8.5A95.765,95.765,0,0,1,36.784,9.093,57.672,57.672,0,0,0,24.55,13.41C18.884,16.3,16.359,17.3,10.974,16.985S0,10.174,0,10.174Z" transform="translate(33.035 11.367) rotate(-18)" fill="#b2c7b4"/>
      <path id="パス_60" data-name="パス 60" d="M0,4.367S2.933,8.591,6.836,9.892s5.173,1.318,8.776-.318a60.986,60.986,0,0,0,7.78-4.519,36.715,36.715,0,0,1-7.78-2.745C12.009.469,10.4-.167,6.979.036S0,4.367,0,4.367Z" transform="matrix(-0.985, 0.174, -0.174, -0.985, 37.638, 32.403)" fill="#b2c7b4"/>
      <path id="パス_71" data-name="パス 71" d="M0,3.068S2.06,6.035,4.8,6.949s3.634.926,6.165-.223a42.842,42.842,0,0,0,5.465-3.175,25.792,25.792,0,0,1-5.465-1.928C8.436.329,7.308-.117,4.9.026S0,3.068,0,3.068Z" transform="translate(32.262 22.75) rotate(-179)" fill="#b2c7b4"/>
      <path id="パス_67" data-name="パス 67" d="M-294.4,1210.272c-.667,4.026,1.952,4.791,6.036,5.533s5.707.839,8.8-2.542,2.916-4.094.49-7.394-6.114-3.406-10.2-1.492S-293.731,1206.246-294.4,1210.272Z" transform="translate(347.53 -1081.024)" fill="#b9a489"/>
      <path id="パス_68" data-name="パス 68" d="M.1,7.151c-.667,4.026,1.952,4.791,6.036,5.533s5.707.839,8.8-2.542,2.916-4.093.49-7.394S9.316-.658,5.232,1.256.77,3.125.1,7.151Z" transform="translate(46.083 146.381) rotate(-45)" fill="#b9a489"/>
      <path id="パス_69" data-name="パス 69" d="M.1,7.151c-.667,4.026,1.952,4.791,6.036,5.533s5.707.839,8.8-2.542,2.916-4.093.49-7.394S9.316-.658,5.232,1.256.77,3.125.1,7.151Z" transform="translate(7.777 147.405) rotate(-45)" fill="#b9a489"/>
      <path id="パス_70" data-name="パス 70" d="M.1,7.151c-.667,4.026,1.952,4.791,6.036,5.533s5.707.839,8.8-2.542,2.916-4.094.49-7.394S9.316-.658,5.232,1.256.77,3.125.1,7.151Z" transform="translate(6.554 108.865) rotate(30)" fill="#b9a489"/>
    </g>
    <g id="グループ_320" data-name="グループ 320" transform="translate(347.357 11059.413)">
      <path id="パス_58-2" data-name="パス 58" d="M-2029.371,19586.166c-2.562,0-14.1,12.408-14.1,25.006s13.627,13.084,15.117,18.629-8.864,13.059-7.235,13.734,10.87-8.2,9.377-15.666-10.1-1.486-11.73-14.758S-2026.809,19586.166-2029.371,19586.166Z" transform="translate(2070.406 -19567.852)" fill="url(#linear-gradient-2)"/>
      <path id="パス_57-2" data-name="パス 57" d="M-2032.408,19586.166c-2.562,0-14.1,12.408-14.1,25.006s13.118,19.318,16.054,28.088-12.154,27.785-10.525,28.463,16.817-18.9,14.578-28.463-12.949-12.877-14.578-26.148S-2029.845,19586.166-2032.408,19586.166Z" transform="translate(2073.442 -19517.053)" fill="#faf2e8"/>
      <path id="パス_61-2" data-name="パス 61" d="M2.089,27.333c.858,0,4.724-4.158,4.724-8.379s-4.4-6.473-5.379-9.411S5.506.234,4.96.006-.675,6.337.075,9.544,4.414,13.857,4.96,18.3,1.231,27.333,2.089,27.333Z" transform="translate(21.313 139.216) rotate(-115)" fill="#faf2e8"/>
      <path id="パス_62-2" data-name="パス 62" d="M.862,11.276A4.465,4.465,0,0,0,2.81,7.82C2.81,6.077,1,5.148.591,3.937S2.271.1,2.046,0-.278,2.614.031,3.937,1.821,5.716,2.046,7.55.508,11.276.862,11.276Z" transform="translate(18.438 141.134) rotate(-115)" fill="#faf2e8"/>
      <path id="パス_65-2" data-name="パス 65" d="M.862,11.276A4.465,4.465,0,0,0,2.81,7.82C2.81,6.077,1,5.148.591,3.937S2.271.1,2.046,0-.278,2.614.031,3.937,1.821,5.716,2.046,7.55.508,11.276.862,11.276Z" transform="translate(39.524 148.568) rotate(-115)" fill="#faf2e8"/>
      <path id="パス_66-2" data-name="パス 66" d="M.862,11.276A4.465,4.465,0,0,0,2.81,7.82C2.81,6.077,1,5.148.591,3.937S2.271.1,2.046,0-.278,2.614.031,3.937,1.821,5.716,2.046,7.55.508,11.276.862,11.276Z" transform="translate(47.273 126.165) rotate(-115)" fill="#faf2e8"/>
      <path id="パス_63-2" data-name="パス 63" d="M.862,0A4.465,4.465,0,0,1,2.811,3.458C2.811,5.2,1,6.129.591,7.34s1.68,3.841,1.455,3.935S-.279,8.664.031,7.34s1.79-1.778,2.016-3.613S.508,0,.862,0Z" transform="translate(29.843 134.341) rotate(115)" fill="#faf2e8"/>
      <path id="パス_64-2" data-name="パス 64" d="M.862,0A4.465,4.465,0,0,1,2.811,3.458C2.811,5.2,1,6.129.591,7.34s1.68,3.841,1.455,3.935S-.279,8.664.031,7.34s1.79-1.778,2.016-3.613S.508,0,.862,0Z" transform="translate(46.085 149.676) rotate(115)" fill="#faf2e8"/>
      <path id="パス_59-2" data-name="パス 59" d="M0,6.868s4.612,6.642,10.75,8.688,8.135,2.072,13.8-.5A95.891,95.891,0,0,0,36.785,7.95,57.736,57.736,0,0,1,24.551,3.633C18.885.737,16.359-.263,10.974.057S0,6.868,0,6.868Z" transform="matrix(-0.951, -0.309, 0.309, -0.951, 34.984, 27.575)" fill="#b2c7b4"/>
      <path id="パス_60-2" data-name="パス 60" d="M0,6.47S2.933,2.246,6.836.945s5.173-1.318,8.777.318a60.986,60.986,0,0,1,7.78,4.519,36.716,36.716,0,0,0-7.78,2.745C12.009,10.369,10.4,11,6.979,10.8S0,6.47,0,6.47Z" transform="matrix(0.985, 0.174, -0.174, 0.985, 37.53, 21.729)" fill="#b2c7b4"/>
      <path id="パス_71-2" data-name="パス 71" d="M0,4.545S2.06,1.578,4.8.664s3.634-.926,6.165.223a42.842,42.842,0,0,1,5.465,3.175A25.792,25.792,0,0,0,10.968,5.99C8.436,7.284,7.308,7.731,4.9,7.588S0,4.545,0,4.545Z" transform="matrix(1, -0.017, 0.017, 1, 40.892, 15.136)" fill="#b2c7b4"/>
      <path id="パス_67-2" data-name="パス 67" d="M-277.348,1210.272c.667,4.026-1.952,4.791-6.036,5.533s-5.707.839-8.8-2.542-2.916-4.094-.49-7.394,6.114-3.406,10.2-1.492S-278.015,1206.246-277.348,1210.272Z" transform="translate(297.503 -1081.026)" fill="#b9a489"/>
      <path id="パス_68-2" data-name="パス 68" d="M.1,5.955C-.563,1.93,2.056,1.164,6.14.422s5.707-.839,8.8,2.542,2.916,4.094.49,7.394-6.114,3.406-10.2,1.492S.77,9.981.1,5.955Z" transform="translate(17.936 155.647) rotate(-135)" fill="#b9a489"/>
      <path id="パス_69-2" data-name="パス 69" d="M.1,5.955C-.563,1.93,2.056,1.164,6.14.422s5.707-.839,8.8,2.542,2.916,4.094.49,7.394-6.114,3.406-10.2,1.492S.77,9.981.1,5.955Z" transform="translate(56.243 156.671) rotate(-135)" fill="#b9a489"/>
      <path id="パス_70-2" data-name="パス 70" d="M.1,5.955C-.563,1.929,2.056,1.164,6.14.422s5.707-.839,8.8,2.542,2.916,4.094.49,7.394-6.114,3.406-10.2,1.492S.77,9.981.1,5.955Z" transform="translate(73.286 120.213) rotate(150)" fill="#b9a489"/>
    </g>
    <g id="グループ_319" data-name="グループ 319" transform="translate(151.239 11058.744)">
      <path id="パス_58-3" data-name="パス 58" d="M-2040.144,19586.166c2.562,0,14.1,12.408,14.1,25.006s-13.626,13.084-15.117,18.629,8.864,13.059,7.235,13.734-10.87-8.2-9.377-15.666,10.1-1.486,11.73-14.758S-2042.706,19586.166-2040.144,19586.166Z" transform="translate(2072.396 -19567.85)" fill="url(#linear-gradient)"/>
      <path id="パス_57-3" data-name="パス 57" d="M-2040.27,19586.166c2.562,0,14.1,12.408,14.1,25.006s-13.118,19.318-16.054,28.088,12.154,27.785,10.525,28.463-16.817-18.9-14.578-28.463,12.949-12.877,14.578-26.148S-2042.832,19586.166-2040.27,19586.166Z" transform="translate(2072.522 -19517.051)" fill="#faf2e8"/>
      <path id="パス_61-3" data-name="パス 61" d="M2.089,0c.858,0,4.724,4.159,4.724,8.379s-4.4,6.474-5.379,9.41S5.506,27.1,4.96,27.328-.675,21,.075,17.789,4.414,13.477,4.96,9.03,1.231,0,2.089,0Z" transform="translate(27.201 127.667) rotate(-65)" fill="#faf2e8"/>
      <path id="パス_62-3" data-name="パス 62" d="M.862,0A4.467,4.467,0,0,1,2.81,3.457C2.81,5.2,1,6.127.591,7.34s1.68,3.839,1.455,3.934S-.278,8.663.031,7.34s1.79-1.779,2.015-3.615S.508,0,.862,0Z" transform="translate(44.629 136.37) rotate(-65)" fill="#faf2e8"/>
      <path id="パス_65-3" data-name="パス 65" d="M.862,0A4.467,4.467,0,0,1,2.81,3.457C2.81,5.2,1,6.127.591,7.34s1.68,3.839,1.455,3.934S-.278,8.663.031,7.34s1.79-1.779,2.015-3.615S.508,0,.862,0Z" transform="translate(23.543 143.804) rotate(-65)" fill="#faf2e8"/>
      <path id="パス_66-3" data-name="パス 66" d="M.862,0A4.467,4.467,0,0,1,2.81,3.457C2.81,5.2,1,6.127.591,7.34s1.68,3.839,1.455,3.934S-.278,8.663.031,7.34s1.79-1.779,2.015-3.615S.508,0,.862,0Z" transform="translate(15.795 121.401) rotate(-65)" fill="#faf2e8"/>
      <path id="パス_63-3" data-name="パス 63" d="M.863,11.277A4.465,4.465,0,0,0,2.811,7.82C2.811,6.077,1,5.148.591,3.937S2.271.1,2.046,0-.279,2.614.031,3.937,1.821,5.716,2.047,7.55.508,11.277.863,11.277Z" transform="translate(53.664 129.577) rotate(65)" fill="#faf2e8"/>
      <path id="パス_64-3" data-name="パス 64" d="M.863,11.277A4.465,4.465,0,0,0,2.811,7.82C2.811,6.077,1,5.148.591,3.937S2.271.1,2.046,0-.279,2.614.031,3.937,1.821,5.716,2.047,7.55.508,11.277.863,11.277Z" transform="translate(37.422 144.912) rotate(65)" fill="#faf2e8"/>
      <path id="パス_59-3" data-name="パス 59" d="M0,10.174S4.612,3.532,10.75,1.487s8.135-2.073,13.8.5A95.765,95.765,0,0,1,36.784,9.093,57.672,57.672,0,0,0,24.55,13.41C18.884,16.3,16.359,17.3,10.974,16.985S0,10.174,0,10.174Z" transform="translate(33.035 11.367) rotate(-18)" fill="#b2c7b4"/>
      <path id="パス_60-3" data-name="パス 60" d="M0,4.367S2.933,8.591,6.836,9.892s5.173,1.318,8.776-.318a60.986,60.986,0,0,0,7.78-4.519,36.715,36.715,0,0,1-7.78-2.745C12.009.469,10.4-.167,6.979.036S0,4.367,0,4.367Z" transform="matrix(-0.985, 0.174, -0.174, -0.985, 37.638, 32.403)" fill="#b2c7b4"/>
      <path id="パス_71-3" data-name="パス 71" d="M0,3.068S2.06,6.035,4.8,6.949s3.634.926,6.165-.223a42.842,42.842,0,0,0,5.465-3.175,25.792,25.792,0,0,1-5.465-1.928C8.436.329,7.308-.117,4.9.026S0,3.068,0,3.068Z" transform="translate(32.262 22.75) rotate(-179)" fill="#b2c7b4"/>
      <path id="パス_67-3" data-name="パス 67" d="M-294.4,1210.272c-.667,4.026,1.952,4.791,6.036,5.533s5.707.839,8.8-2.542,2.916-4.094.49-7.394-6.114-3.406-10.2-1.492S-293.731,1206.246-294.4,1210.272Z" transform="translate(347.53 -1081.024)" fill="#b9a489"/>
      <path id="パス_68-3" data-name="パス 68" d="M.1,7.151c-.667,4.026,1.952,4.791,6.036,5.533s5.707.839,8.8-2.542,2.916-4.093.49-7.394S9.316-.658,5.232,1.256.77,3.125.1,7.151Z" transform="translate(46.083 146.381) rotate(-45)" fill="#b9a489"/>
      <path id="パス_69-3" data-name="パス 69" d="M.1,7.151c-.667,4.026,1.952,4.791,6.036,5.533s5.707.839,8.8-2.542,2.916-4.093.49-7.394S9.316-.658,5.232,1.256.77,3.125.1,7.151Z" transform="translate(7.776 147.405) rotate(-45)" fill="#b9a489"/>
      <path id="パス_70-3" data-name="パス 70" d="M.1,7.151c-.667,4.026,1.952,4.791,6.036,5.533s5.707.839,8.8-2.542,2.916-4.094.49-7.394S9.316-.658,5.232,1.256.77,3.125.1,7.151Z" transform="translate(6.553 108.865) rotate(30)" fill="#b9a489"/>
    </g>
  </g>
</svg>
