<svg xmlns="http://www.w3.org/2000/svg" xmlns:xlink="http://www.w3.org/1999/xlink" preserveAspectRatio="none" width="1920.245" height="183.46" viewBox="0 0 1920.245 183.46">
  <defs>
    <linearGradient id="linear-gradient" x1="0.556" y1="0.878" x2="0.556" y2="0.384" gradientUnits="objectBoundingBox">
      <stop offset="0" stop-color="#faf2e8"/>
      <stop offset="1" stop-color="#b2c7b4"/>
    </linearGradient>
    <linearGradient id="linear-gradient-2" x1="0.444" y1="0.878" x2="0.444" y2="0.384" xlink:href="#linear-gradient"/>
  </defs>
  <g id="グループ_318" data-name="グループ 318" transform="translate(0.245 -10516.54)">
    <path id="パス_56" data-name="パス 56" d="M-1995.843,19632c120.017,0,120-60,240-60s120,60,240,60,120-60,240-60,120,60,240,60,120-60,240-60,120,60,240,60,139.735-60,240-60c-.178.145,0,100,0,100h-1920.07s-.395-100.121,0-100C-2112.984,19572-2115.86,19632-1995.843,19632Z" transform="translate(2235.843 -8972)" fill="#715b47"/>
    <g id="グループ_83" data-name="グループ 83" transform="translate(264 1185.138)">
      <path id="パス_58" data-name="パス 58" d="M-2040,19586.168c2.673,0,14.708,12.945,14.708,26.09s-14.217,13.65-15.772,19.436,9.248,13.625,7.549,14.33-11.341-8.557-9.783-16.346,10.539-1.549,12.239-15.4S-2042.673,19586.168-2040,19586.168Z" transform="translate(2250 -10232.309)" fill="url(#linear-gradient)"/>
      <path id="パス_57" data-name="パス 57" d="M-2040,19586.168c2.673,0,14.708,12.945,14.708,26.09s-13.687,20.156-16.75,29.3,12.681,28.99,10.981,29.7-17.545-19.715-15.21-29.7,13.51-13.434,15.21-27.281S-2042.673,19586.168-2040,19586.168Z" transform="translate(2250 -10179.309)" fill="#faf2e8"/>
      <path id="パス_61" data-name="パス 61" d="M-2044.325,19586.168c.9,0,4.928,4.338,4.928,8.742s-4.586,6.754-5.612,9.818,4.249,9.713,3.679,9.951-5.879-6.605-5.1-9.951,4.527-4.5,5.1-9.141S-2045.221,19586.168-2044.325,19586.168Z" transform="translate(-16681.477 -664.288) rotate(-65)" fill="#faf2e8"/>
      <path id="パス_62" data-name="パス 62" d="M-2045.606,19586.168c.369,0,2.033,1.789,2.033,3.605s-1.892,2.787-2.315,4.051,1.753,4.008,1.518,4.105-2.425-2.725-2.1-4.105,1.867-1.855,2.1-3.77S-2045.975,19586.168-2045.606,19586.168Z" transform="translate(-16663.293 -655.207) rotate(-65)" fill="#faf2e8"/>
      <path id="パス_65" data-name="パス 65" d="M-2045.606,19586.168c.369,0,2.033,1.789,2.033,3.605s-1.892,2.787-2.315,4.051,1.753,4.008,1.518,4.105-2.425-2.725-2.1-4.105,1.867-1.855,2.1-3.77S-2045.975,19586.168-2045.606,19586.168Z" transform="translate(-16685.293 -647.451) rotate(-65)" fill="#faf2e8"/>
      <path id="パス_66" data-name="パス 66" d="M-2045.606,19586.168c.369,0,2.033,1.789,2.033,3.605s-1.892,2.787-2.315,4.051,1.753,4.008,1.518,4.105-2.425-2.725-2.1-4.105,1.867-1.855,2.1-3.77S-2045.975,19586.168-2045.606,19586.168Z" transform="translate(-16693.377 -670.825) rotate(-65)" fill="#faf2e8"/>
      <path id="パス_63" data-name="パス 63" d="M.9,11.766c.37,0,2.033-1.789,2.033-3.607S1.04,5.371.616,4.107,2.369.1,2.134,0-.292,2.727.032,4.107s1.868,1.855,2.1,3.77S.53,11.766.9,11.766Z" transform="translate(232.34 9469.941) rotate(65)" fill="#faf2e8"/>
      <path id="パス_64" data-name="パス 64" d="M.9,11.766c.37,0,2.033-1.789,2.033-3.607S1.04,5.371.616,4.107,2.369.1,2.134,0-.292,2.727.032,4.107s1.868,1.855,2.1,3.77S.53,11.766.9,11.766Z" transform="translate(215.394 9485.941) rotate(65)" fill="#faf2e8"/>
      <path id="パス_59" data-name="パス 59" d="M-2019.374,19524.859s4.812-6.93,11.215-9.064,8.487-2.162,14.4.521a100.05,100.05,0,0,1,12.764,7.414,60.236,60.236,0,0,0-12.764,4.5c-5.912,3.021-8.547,4.064-14.165,3.73S-2019.374,19524.859-2019.374,19524.859Z" transform="translate(-3898.876 -9836.562) rotate(-18)" fill="#b2c7b4"/>
      <path id="パス_60" data-name="パス 60" d="M0,4.557s3.06,4.407,7.132,5.764,5.4,1.375,9.157-.332a63.628,63.628,0,0,0,8.117-4.715,38.306,38.306,0,0,1-8.117-2.864C12.53.49,10.854-.174,7.282.039S0,4.557,0,4.557Z" transform="matrix(-0.985, 0.174, -0.174, -0.985, 215.62, 9368.557)" fill="#b2c7b4"/>
      <path id="パス_71" data-name="パス 71" d="M0,3.2s2.15,3.1,5.01,4.049,3.792.966,6.433-.233a44.7,44.7,0,0,0,5.7-3.312,26.91,26.91,0,0,1-5.7-2.012C8.8.344,7.625-.122,5.115.028S0,3.2,0,3.2Z" transform="translate(210.011 9358.484) rotate(-179)" fill="#b2c7b4"/>
      <path id="パス_67" data-name="パス 67" d="M-294.393,1210.582c-.7,4.2,2.037,5,6.3,5.773s5.954.876,9.182-2.652,3.043-4.271.511-7.715-6.379-3.553-10.64-1.556S-293.7,1206.381-294.393,1210.582Z" transform="translate(526.178 8259.016)" fill="#b9a489"/>
      <path id="パス_68" data-name="パス 68" d="M-294.393,1210.582c-.7,4.2,2.037,5,6.3,5.773s5.954.876,9.182-2.652,3.043-4.271.511-7.715-6.379-3.553-10.64-1.556S-293.7,1206.381-294.393,1210.582Z" transform="translate(-418.061 8428.494) rotate(-45)" fill="#b9a489"/>
      <path id="パス_69" data-name="パス 69" d="M-294.393,1210.582c-.7,4.2,2.037,5,6.3,5.773s5.954.876,9.182-2.652,3.043-4.271.511-7.715-6.379-3.553-10.64-1.556S-293.7,1206.381-294.393,1210.582Z" transform="translate(-458.027 8429.563) rotate(-45)" fill="#b9a489"/>
      <path id="パス_70" data-name="パス 70" d="M-294.393,1210.582c-.7,4.2,2.037,5,6.3,5.773s5.954.876,9.182-2.652,3.043-4.271.511-7.715-6.379-3.553-10.64-1.556S-293.7,1206.381-294.393,1210.582Z" transform="translate(1039.794 8553.648) rotate(30)" fill="#b9a489"/>
    </g>
    <g id="グループ_84" data-name="グループ 84" transform="translate(921.77 10516.539)">
      <path id="パス_58-2" data-name="パス 58" d="M-2028.76,19586.168c-2.673,0-14.708,12.945-14.708,26.09s14.217,13.65,15.773,19.436-9.248,13.625-7.549,14.33,11.341-8.557,9.784-16.346-10.539-1.549-12.239-15.4S-2026.087,19586.168-2028.76,19586.168Z" transform="translate(2071.572 -19567.059)" fill="url(#linear-gradient-2)"/>
      <path id="パス_57-2" data-name="パス 57" d="M-2031.8,19586.168c-2.673,0-14.708,12.945-14.708,26.09s13.687,20.156,16.75,29.3-12.681,28.99-10.981,29.7,17.546-19.715,15.21-29.7-13.51-13.434-15.21-27.281S-2029.123,19586.168-2031.8,19586.168Z" transform="translate(2074.608 -19514.059)" fill="#faf2e8"/>
      <path id="パス_61-2" data-name="パス 61" d="M2.179,28.518c.9,0,4.928-4.338,4.928-8.742S2.522,13.021,1.5,9.957,5.744.244,5.175.006-.7,6.611.078,9.957s4.527,4.5,5.1,9.141S1.284,28.518,2.179,28.518Z" transform="translate(22.236 145.251) rotate(-115)" fill="#faf2e8"/>
      <path id="パス_62-2" data-name="パス 62" d="M.9,11.764c.369,0,2.033-1.789,2.033-3.605S1.04,5.371.617,4.107,2.37.1,2.135,0-.29,2.727.032,4.107s1.867,1.855,2.1,3.77S.53,11.764.9,11.764Z" transform="translate(19.236 147.251) rotate(-115)" fill="#faf2e8"/>
      <path id="パス_65-2" data-name="パス 65" d="M.9,11.764c.369,0,2.033-1.789,2.033-3.605S1.04,5.371.617,4.107,2.37.1,2.135,0-.29,2.727.032,4.107s1.867,1.855,2.1,3.77S.53,11.764.9,11.764Z" transform="translate(41.237 155.007) rotate(-115)" fill="#faf2e8"/>
      <path id="パス_66-2" data-name="パス 66" d="M.9,11.764c.369,0,2.033-1.789,2.033-3.605S1.04,5.371.617,4.107,2.37.1,2.135,0-.29,2.727.032,4.107s1.867,1.855,2.1,3.77S.53,11.764.9,11.764Z" transform="translate(49.321 131.633) rotate(-115)" fill="#faf2e8"/>
      <path id="パス_63-2" data-name="パス 63" d="M.9,0c.37,0,2.033,1.789,2.033,3.607S1.041,6.395.617,7.658s1.753,4.008,1.518,4.106S-.291,9.039.032,7.658,1.9,5.8,2.135,3.889.53,0,.9,0Z" transform="translate(31.135 140.164) rotate(115)" fill="#faf2e8"/>
      <path id="パス_64-2" data-name="パス 64" d="M.9,0c.37,0,2.033,1.789,2.033,3.607S1.041,6.395.617,7.658s1.753,4.008,1.518,4.106S-.291,9.039.032,7.658,1.9,5.8,2.135,3.889.53,0,.9,0Z" transform="translate(48.082 156.164) rotate(115)" fill="#faf2e8"/>
      <path id="パス_59-2" data-name="パス 59" d="M0,7.164s4.812,6.93,11.216,9.064,8.487,2.162,14.4-.521A100.046,100.046,0,0,0,38.379,8.293a60.239,60.239,0,0,1-12.764-4.5C19.7.768,17.068-.275,11.45.059S0,7.164,0,7.164Z" transform="matrix(-0.951, -0.309, 0.309, -0.951, 36.5, 28.77)" fill="#b2c7b4"/>
      <path id="パス_60-2" data-name="パス 60" d="M0,6.751S3.06,2.344,7.132.986s5.4-1.375,9.157.332a63.629,63.629,0,0,1,8.117,4.715A38.307,38.307,0,0,0,16.289,8.9c-3.759,1.921-5.435,2.585-9.008,2.372S0,6.751,0,6.751Z" transform="matrix(0.985, 0.174, -0.174, 0.985, 39.156, 22.671)" fill="#b2c7b4"/>
      <path id="パス_71-2" data-name="パス 71" d="M0,4.742S2.15,1.647,5.01.693,8.8-.273,11.443.926a44.7,44.7,0,0,1,5.7,3.312,26.91,26.91,0,0,0-5.7,2.012C8.8,7.6,7.625,8.066,5.115,7.916S0,4.742,0,4.742Z" transform="matrix(1, -0.017, 0.017, 1, 42.663, 15.793)" fill="#b2c7b4"/>
      <path id="パス_67-2" data-name="パス 67" d="M-276.6,1210.582c.7,4.2-2.037,5-6.3,5.773s-5.954.876-9.182-2.652-3.043-4.271-.511-7.715,6.379-3.553,10.64-1.556S-277.3,1206.381-276.6,1210.582Z" transform="translate(297.632 -1075.733)" fill="#b9a489"/>
      <path id="パス_68-2" data-name="パス 68" d="M.108,6.213c-.7-4.2,2.037-5,6.3-5.773s5.954-.876,9.182,2.652,3.043,4.271.511,7.715S9.72,14.361,5.459,12.364.8,10.414.108,6.213Z" transform="translate(18.712 162.393) rotate(-135)" fill="#b9a489"/>
      <path id="パス_69-2" data-name="パス 69" d="M.108,6.213c-.7-4.2,2.037-5,6.3-5.773s5.954-.876,9.182,2.652,3.043,4.271.511,7.715S9.72,14.361,5.459,12.364.8,10.414.108,6.213Z" transform="translate(58.679 163.461) rotate(-135)" fill="#b9a489"/>
      <path id="パス_70-2" data-name="パス 70" d="M.108,6.214c-.7-4.2,2.037-5,6.3-5.773s5.954-.876,9.182,2.652,3.043,4.271.511,7.715S9.72,14.361,5.459,12.364.8,10.414.108,6.214Z" transform="translate(76.461 125.424) rotate(150)" fill="#b9a489"/>
    </g>
    <g id="グループ_85" data-name="グループ 85" transform="translate(1223.649 1181.791)">
      <path id="パス_58-3" data-name="パス 58" d="M-2040,19586.168c2.673,0,14.708,12.945,14.708,26.09s-14.217,13.65-15.772,19.436,9.248,13.625,7.549,14.33-11.341-8.557-9.783-16.346,10.539-1.549,12.239-15.4S-2042.673,19586.168-2040,19586.168Z" transform="translate(2250 -10232.309)" fill="url(#linear-gradient)"/>
      <path id="パス_57-3" data-name="パス 57" d="M-2040,19586.168c2.673,0,14.708,12.945,14.708,26.09s-13.687,20.156-16.75,29.3,12.681,28.99,10.981,29.7-17.545-19.715-15.21-29.7,13.51-13.434,15.21-27.281S-2042.673,19586.168-2040,19586.168Z" transform="translate(2250 -10179.309)" fill="#faf2e8"/>
      <path id="パス_61-3" data-name="パス 61" d="M-2044.325,19586.168c.9,0,4.928,4.338,4.928,8.742s-4.586,6.754-5.612,9.818,4.249,9.713,3.679,9.951-5.879-6.605-5.1-9.951,4.527-4.5,5.1-9.141S-2045.221,19586.168-2044.325,19586.168Z" transform="translate(-16681.477 -664.288) rotate(-65)" fill="#faf2e8"/>
      <path id="パス_62-3" data-name="パス 62" d="M-2045.606,19586.168c.369,0,2.033,1.789,2.033,3.605s-1.892,2.787-2.315,4.051,1.753,4.008,1.518,4.105-2.425-2.725-2.1-4.105,1.867-1.855,2.1-3.77S-2045.975,19586.168-2045.606,19586.168Z" transform="translate(-16663.293 -655.207) rotate(-65)" fill="#faf2e8"/>
      <path id="パス_65-3" data-name="パス 65" d="M-2045.606,19586.168c.369,0,2.033,1.789,2.033,3.605s-1.892,2.787-2.315,4.051,1.753,4.008,1.518,4.105-2.425-2.725-2.1-4.105,1.867-1.855,2.1-3.77S-2045.975,19586.168-2045.606,19586.168Z" transform="translate(-16685.293 -647.451) rotate(-65)" fill="#faf2e8"/>
      <path id="パス_66-3" data-name="パス 66" d="M-2045.606,19586.168c.369,0,2.033,1.789,2.033,3.605s-1.892,2.787-2.315,4.051,1.753,4.008,1.518,4.105-2.425-2.725-2.1-4.105,1.867-1.855,2.1-3.77S-2045.975,19586.168-2045.606,19586.168Z" transform="translate(-16693.377 -670.825) rotate(-65)" fill="#faf2e8"/>
      <path id="パス_63-3" data-name="パス 63" d="M.9,11.766c.37,0,2.033-1.789,2.033-3.607S1.04,5.371.616,4.107,2.369.1,2.134,0-.292,2.727.032,4.107s1.868,1.855,2.1,3.77S.53,11.766.9,11.766Z" transform="translate(232.34 9469.941) rotate(65)" fill="#faf2e8"/>
      <path id="パス_64-3" data-name="パス 64" d="M.9,11.766c.37,0,2.033-1.789,2.033-3.607S1.04,5.371.616,4.107,2.369.1,2.134,0-.292,2.727.032,4.107s1.868,1.855,2.1,3.77S.53,11.766.9,11.766Z" transform="translate(215.394 9485.941) rotate(65)" fill="#faf2e8"/>
      <path id="パス_59-3" data-name="パス 59" d="M-2019.374,19524.859s4.812-6.93,11.215-9.064,8.487-2.162,14.4.521a100.05,100.05,0,0,1,12.764,7.414,60.236,60.236,0,0,0-12.764,4.5c-5.912,3.021-8.547,4.064-14.165,3.73S-2019.374,19524.859-2019.374,19524.859Z" transform="translate(-3898.876 -9836.562) rotate(-18)" fill="#b2c7b4"/>
      <path id="パス_60-3" data-name="パス 60" d="M0,4.557s3.06,4.407,7.132,5.764,5.4,1.375,9.157-.332a63.628,63.628,0,0,0,8.117-4.715,38.306,38.306,0,0,1-8.117-2.864C12.53.49,10.854-.174,7.282.039S0,4.557,0,4.557Z" transform="matrix(-0.985, 0.174, -0.174, -0.985, 215.62, 9368.557)" fill="#b2c7b4"/>
      <path id="パス_71-3" data-name="パス 71" d="M0,3.2s2.15,3.1,5.01,4.049,3.792.966,6.433-.233a44.7,44.7,0,0,0,5.7-3.312,26.91,26.91,0,0,1-5.7-2.012C8.8.344,7.625-.122,5.115.028S0,3.2,0,3.2Z" transform="translate(210.011 9358.484) rotate(-179)" fill="#b2c7b4"/>
      <path id="パス_67-3" data-name="パス 67" d="M-294.393,1210.582c-.7,4.2,2.037,5,6.3,5.773s5.954.876,9.182-2.652,3.043-4.271.511-7.715-6.379-3.553-10.64-1.556S-293.7,1206.381-294.393,1210.582Z" transform="translate(526.178 8259.016)" fill="#b9a489"/>
      <path id="パス_68-3" data-name="パス 68" d="M-294.393,1210.582c-.7,4.2,2.037,5,6.3,5.773s5.954.876,9.182-2.652,3.043-4.271.511-7.715-6.379-3.553-10.64-1.556S-293.7,1206.381-294.393,1210.582Z" transform="translate(-418.061 8428.494) rotate(-45)" fill="#b9a489"/>
      <path id="パス_69-3" data-name="パス 69" d="M-294.393,1210.582c-.7,4.2,2.037,5,6.3,5.773s5.954.876,9.182-2.652,3.043-4.271.511-7.715-6.379-3.553-10.64-1.556S-293.7,1206.381-294.393,1210.582Z" transform="translate(-458.027 8429.563) rotate(-45)" fill="#b9a489"/>
      <path id="パス_70-3" data-name="パス 70" d="M-294.393,1210.582c-.7,4.2,2.037,5,6.3,5.773s5.954.876,9.182-2.652,3.043-4.271.511-7.715-6.379-3.553-10.64-1.556S-293.7,1206.381-294.393,1210.582Z" transform="translate(1039.794 8553.648) rotate(30)" fill="#b9a489"/>
    </g>
  </g>
</svg>
