<svg id="グループ_123" data-name="グループ 123" xmlns="http://www.w3.org/2000/svg" width="53.399" height="60.389" viewBox="0 0 53.399 60.389">
  <path id="パス_82" data-name="パス 82" d="M-13909.338,11490.854s5.057,11.41,2.727,17.824-12.043,7.834-12.043,7.834-5.636-3.3-6.1-7.834-1.069-7.62,2.854-11.437S-13909.338,11490.854-13909.338,11490.854Z" transform="translate(13946.381 -11487.608)" fill="#fff"/>
  <path id="パス_86" data-name="パス 86" d="M3.34,25.659S-1.716,14.248.614,7.834,12.657,0,12.657,0s5.635,3.3,6.1,7.834,1.069,7.62-2.854,11.438S3.34,25.659,3.34,25.659Z" transform="matrix(-0.407, -0.914, 0.914, -0.407, 29.959, 37.556)" fill="#fff"/>
  <path id="パス_87" data-name="パス 87" d="M3.34,25.659S-1.716,14.248.614,7.834,12.657,0,12.657,0s5.635,3.3,6.1,7.834,1.069,7.62-2.854,11.438S3.34,25.659,3.34,25.659Z" transform="matrix(0.259, -0.966, 0.966, 0.259, 15.417, 38.707)" fill="#fff"/>
  <path id="パス_91" data-name="パス 91" d="M-2040.3,19586.17c-1.129,0-6.21,5.465-6.21,11.014s5.778,8.51,7.071,12.371-5.354,12.24-4.636,12.537,7.407-8.322,6.421-12.537-5.7-5.67-6.421-11.516S-2039.167,19586.17-2040.3,19586.17Z" transform="translate(2065.721 -19561.711)" fill="#bbd6b1"/>
  <path id="パス_83" data-name="パス 83" d="M2.879,22.118S-1.479,12.282.529,6.752,10.911,0,10.911,0s4.858,2.846,5.26,6.752.922,6.568-2.461,9.86S2.879,22.118,2.879,22.118Z" transform="translate(34.848 19.155) rotate(150)" fill="#fff"/>
  <path id="パス_84" data-name="パス 84" d="M2.879,22.118S-1.479,12.282.529,6.752,10.911,0,10.911,0s4.858,2.846,5.26,6.752.922,6.568-2.461,9.86S2.879,22.118,2.879,22.118Z" transform="translate(25.344 9.674) rotate(90)" fill="#fff"/>
  <path id="パス_85" data-name="パス 85" d="M2.879,26.1S-1.479,14.492.529,7.968,10.911,0,10.911,0s4.858,3.358,5.26,7.968.922,7.75-2.461,11.633S2.879,26.1,2.879,26.1Z" transform="translate(22.601 13.734) rotate(60)" fill="#fff"/>
  <path id="パス_92" data-name="パス 92" d="M1.514,13.729S-.778,7.624.278,4.191,5.74,0,5.74,0,8.3,1.766,8.507,4.191s.485,4.077-1.295,6.12S1.514,13.729,1.514,13.729Z" transform="matrix(0.259, 0.966, -0.966, 0.259, 23.593, 46.245)" fill="#bbd6b1"/>
  <path id="パス_93" data-name="パス 93" d="M1.061,9.62S-.545,5.342.195,2.937,4.022,0,4.022,0A4.747,4.747,0,0,1,5.96,2.937c.148,1.7.341,2.857-.906,4.288A11.421,11.421,0,0,1,1.061,9.62Z" transform="translate(30.355 53.896) rotate(-120)" fill="#bbd6b1"/>
  <path id="パス_88" data-name="パス 88" d="M-13964.921,11552.595c-1.138-1.146-2.117-2.461-4.9-2.933s-7.616,1.392-7.616,1.392l-.939,3.118s2.793,2,5.115,2,2.843-2.153,4.685-1.477,2.808,4.859,4.8,3.761S-13963.785,11553.74-13964.921,11552.595Z" transform="translate(14002.068 -11531.682)" fill="#e5d8a0"/>
  <path id="パス_89" data-name="パス 89" d="M1.579,4.794A6.156,6.156,0,0,0,5.464,7.12c2.206.374,6.041-1.1,6.041-1.1l.745-2.473A8.758,8.758,0,0,0,8.192,1.957c-1.842,0-2.255,1.708-3.715,1.171S2.249-.726.671.145.678,3.885,1.579,4.794Z" transform="matrix(-0.799, -0.602, 0.602, -0.799, 31.068, 31.012)" fill="#e5d8a0"/>
  <path id="パス_90" data-name="パス 90" d="M1.579,4.794A6.155,6.155,0,0,0,5.464,7.12c2.206.374,6.041-1.1,6.041-1.1l.519-1.284S11,1.457,8.192,1.957,5.937,3.665,4.476,3.128,2.249-.726.671.145.678,3.885,1.579,4.794Z" transform="translate(24.757 32.247) rotate(-112)" fill="#e5d8a0"/>
</svg>
