<svg xmlns="http://www.w3.org/2000/svg" width="53.399" height="60.389" viewBox="0 0 53.399 60.389">
  <g id="グループ_122" data-name="グループ 122" transform="translate(0)">
    <path id="パス_82" data-name="パス 82" d="M-13921.756,11490.855s-5.057,11.41-2.727,17.824,12.043,7.834,12.043,7.834,5.635-3.3,6.1-7.834,1.069-7.62-2.854-11.437S-13921.756,11490.855-13921.756,11490.855Z" transform="translate(13938.112 -11487.608)" fill="#fff"/>
    <path id="パス_86" data-name="パス 86" d="M3.34,0S-1.716,11.411.614,17.825s12.043,7.834,12.043,7.834,5.635-3.3,6.1-7.834,1.069-7.62-2.854-11.438S3.34,0,3.34,0Z" transform="matrix(0.407, -0.914, 0.914, 0.407, 0, 27.12)" fill="#fff"/>
    <path id="パス_87" data-name="パス 87" d="M3.34,0S-1.716,11.411.614,17.825s12.043,7.834,12.043,7.834,5.635-3.3,6.1-7.834,1.069-7.62-2.854-11.438S3.34,0,3.34,0Z" transform="matrix(-0.259, -0.966, 0.966, -0.259, 13.198, 45.348)" fill="#fff"/>
    <path id="パス_91" data-name="パス 91" d="M-2043.759,19586.17c1.129,0,6.21,5.465,6.21,11.014s-5.778,8.51-7.071,12.371,5.354,12.24,4.636,12.537-7.407-8.322-6.421-12.537,5.7-5.67,6.421-11.516S-2044.887,19586.17-2043.759,19586.17Z" transform="translate(2071.732 -19561.711)" fill="#bbd6b1"/>
    <path id="パス_83" data-name="パス 83" d="M2.879,0S-1.479,9.836.529,15.366s10.382,6.752,10.382,6.752,4.858-2.846,5.26-6.752.922-6.568-2.461-9.86S2.879,0,2.879,0Z" transform="translate(29.61 0) rotate(30)" fill="#fff"/>
    <path id="パス_84" data-name="パス 84" d="M2.879,0S-1.479,9.836.529,15.366s10.382,6.752,10.382,6.752,4.858-2.846,5.26-6.752.922-6.568-2.461-9.86S2.879,0,2.879,0Z" transform="translate(50.174 9.674) rotate(90)" fill="#fff"/>
    <path id="パス_85" data-name="パス 85" d="M2.879,0S-1.479,11.605.529,18.13,10.911,26.1,10.911,26.1s4.858-3.358,5.26-7.968S17.093,10.38,13.71,6.5,2.879,0,2.879,0Z" transform="translate(53.399 26.783) rotate(120)" fill="#fff"/>
    <path id="パス_92" data-name="パス 92" d="M1.514,0S-.778,6.105.278,9.537,5.74,13.729,5.74,13.729,8.3,11.962,8.507,9.537s.485-4.077-1.295-6.12S1.514,0,1.514,0Z" transform="matrix(-0.259, 0.966, -0.966, -0.259, 43.067, 49.798)" fill="#bbd6b1"/>
    <path id="パス_93" data-name="パス 93" d="M1.061,0S-.545,4.278.195,6.683,4.022,9.62,4.022,9.62A4.747,4.747,0,0,0,5.96,6.683c.148-1.7.341-2.857-.906-4.288A11.421,11.421,0,0,0,1.061,0Z" transform="translate(14.713 49.087) rotate(-60)" fill="#bbd6b1"/>
    <path id="パス_88" data-name="パス 88" d="M-13976.384,11552.595c1.138-1.146,2.117-2.461,4.9-2.933s7.616,1.392,7.616,1.392l.939,3.118s-2.793,2-5.115,2-2.843-2.153-4.685-1.477-2.808,4.859-4.8,3.761S-13977.52,11553.74-13976.384,11552.595Z" transform="translate(13992.636 -11531.682)" fill="#e5d8a0"/>
    <path id="パス_89" data-name="パス 89" d="M1.579,2.386A6.156,6.156,0,0,1,5.464.061c2.206-.374,6.041,1.1,6.041,1.1l.745,2.473A8.758,8.758,0,0,1,8.192,5.224c-1.842,0-2.255-1.708-3.716-1.171S2.249,7.907.671,7.036.678,3.3,1.579,2.386Z" transform="matrix(0.799, -0.602, 0.602, 0.799, 18.01, 25.277)" fill="#e5d8a0"/>
    <path id="パス_90" data-name="パス 90" d="M1.579,2.386A6.156,6.156,0,0,1,5.464.061c2.206-.374,6.041,1.1,6.041,1.1l.519,1.284S11,5.723,8.192,5.224,5.937,3.515,4.476,4.053,2.249,7.907.671,7.036.678,3.3,1.579,2.386Z" transform="matrix(0.375, -0.927, 0.927, 0.375, 21.984, 29.557)" fill="#e5d8a0"/>
  </g>
</svg>
