<svg xmlns="http://www.w3.org/2000/svg" width="73.355" height="75.517" viewBox="0 0 73.355 75.517"><g transform="translate(6714.967 238.031)"><text transform="translate(-6696.453 -164.514)" fill="#fff" font-size="15" font-family="HiraMaruProN-W4, Hiragino Maru Gothic ProN" letter-spacing="0.5em"><tspan x="0" y="0">春風</tspan></text><path d="M21.842,0c5.85,0,7.659,2.579,11.28,5.108,3.558,2.478,5.518,8.008,5.518,14.557,0,5.581-.526,9.015-3.992,13.175-3.852,4.629-11.175,4.7-17.992,4.7C4.263,37.536.619,34.6.619,22.2c0-6.536-2.357-9.894,2.128-14.6C6.425,3.742,15.98,0,21.842,0Z" transform="matrix(0.966, 0.259, -0.259, 0.966, -6691.526, -223.808)" fill="#bf6c37"/><path d="M5.937,4.34C3.076,6.685.685,6.285.087,8.251s1.985,4.758,4.164,5.17,4.148-.883,5.81-4.328.912-6.21-.383-8.747C8.826-1.321,6.918,3.536,5.937,4.34Z" transform="matrix(0.391, -0.921, 0.921, 0.391, -6687.98, -227.234)" fill="#bf6c37"/><path d="M9.247-.5a.975.975,0,0,1,.876.619A11.691,11.691,0,0,1,11.475,4.33a9.151,9.151,0,0,1-.965,4.98c-1.5,3.108-3.347,4.684-5.493,4.684a4.641,4.641,0,0,1-.86-.083,6.633,6.633,0,0,1-4.008-3,3.484,3.484,0,0,1-.541-2.81c.4-1.307,1.455-1.75,2.68-2.263A12.265,12.265,0,0,0,5.62,3.953,9.324,9.324,0,0,0,6.767,2.247C7.778.538,8.449-.5,9.247-.5ZM5.018,12.995c1.729,0,3.274-1.386,4.592-4.119a8.619,8.619,0,0,0-.378-8.3C9.223.556,9.215.541,9.207.528a2.574,2.574,0,0,0-.593.655c-.32.445-.659,1.018-.987,1.573A8.6,8.6,0,0,1,6.254,4.727,13.29,13.29,0,0,1,2.676,6.764C1.427,7.288.815,7.576.566,8.4A2.572,2.572,0,0,0,1,10.4,5.65,5.65,0,0,0,4.344,12.93,3.639,3.639,0,0,0,5.018,12.995Z" transform="matrix(0.391, -0.921, 0.921, 0.391, -6687.98, -227.234)" fill="#bf6c37"/><path d="M4.61,4.456C2.177,6.45.582,5.672.075,7.344s1.688,4.046,3.54,4.4,3.528-.751,4.941-3.68A7.712,7.712,0,0,0,8.231.621C7.128-1.536,7.042,2.462,4.61,4.456Z" transform="translate(-6709.6 -206.846) rotate(-120)" fill="#bf6c37"/><path d="M7.658-.5c.5,0,.805.478,1.018.894A10.012,10.012,0,0,1,9.833,4a7.862,7.862,0,0,1-.827,4.275C7.718,10.949,6.123,12.3,4.268,12.3a4.026,4.026,0,0,1-.746-.071A5.721,5.721,0,0,1,.061,9.646,3.03,3.03,0,0,1-.4,7.2C-.06,6.065.712,5.8,1.606,5.5A7.74,7.74,0,0,0,4.293,4.069,8.381,8.381,0,0,0,6.344,1.03C6.759.142,7.058-.5,7.658-.5ZM4.268,11.3c1.439,0,2.73-1.164,3.838-3.46A7.266,7.266,0,0,0,7.786.849C7.738.755,7.7.683,7.662.629c-.122.2-.279.538-.412.824a9.193,9.193,0,0,1-2.324,3.39,8.724,8.724,0,0,1-3,1.6c-.877.3-1.19.433-1.376,1.045a2.112,2.112,0,0,0,.364,1.64,4.725,4.725,0,0,0,2.791,2.12A3.023,3.023,0,0,0,4.268,11.3Z" transform="translate(-6709.6 -206.846) rotate(-120)" fill="#bf6c37"/><path d="M5.282,3.923C2.875,5.9.576,5.679.074,7.333s1.67,4,3.5,4.352,3.492-.743,4.89-3.643A7.628,7.628,0,0,0,8.145.679C7.055-1.456,7.69,1.949,5.282,3.923Z" transform="matrix(-0.966, -0.259, 0.259, -0.966, -6702.257, -175.243)" fill="#bf6c37"/><path d="M7.618-.5c.45,0,.717.45.973.952A9.908,9.908,0,0,1,9.738,4.025a7.782,7.782,0,0,1-.82,4.234c-1.276,2.646-2.856,3.988-4.694,3.988a3.99,3.99,0,0,1-.739-.071A5.667,5.667,0,0,1,.057,9.616,3.006,3.006,0,0,1-.4,7.187C-.06,6.053.922,5.641,2.06,5.165A10.831,10.831,0,0,0,4.965,3.536,5.971,5.971,0,0,0,6.726.622,5.9,5.9,0,0,1,6.959,0,.734.734,0,0,1,7.618-.5ZM4.223,11.247c1.422,0,2.7-1.151,3.794-3.422A7.181,7.181,0,0,0,7.7.907L7.691.89,7.675.94A6.928,6.928,0,0,1,5.6,4.31,11.83,11.83,0,0,1,2.446,6.087c-1.108.464-1.7.737-1.894,1.391A2.088,2.088,0,0,0,.913,9.1a4.67,4.67,0,0,0,2.758,2.1A2.988,2.988,0,0,0,4.223,11.247Z" transform="matrix(-0.966, -0.259, 0.259, -0.966, -6702.257, -175.243)" fill="#bf6c37"/><path d="M5.71,2.861C3.338,4.805.568,5.789.072,7.418s1.646,3.945,3.452,4.287,3.439-.732,4.817-3.588A7.519,7.519,0,0,0,8.025.865C6.951-1.239,8.08.917,5.71,2.861Z" transform="matrix(0.087, 0.996, -0.996, 0.087, -6643.91, -188.749)" fill="#bf6c37"/><path d="M7.506-.5a.726.726,0,0,1,.6.438c.084.143.192.355.341.647L8.47.637A9.766,9.766,0,0,1,9.6,4.16a7.679,7.679,0,0,1-.807,4.174c-1.259,2.609-2.817,3.932-4.632,3.932a3.936,3.936,0,0,1-.729-.07A5.592,5.592,0,0,1,.051,9.672a2.97,2.97,0,0,1-.457-2.4c.368-1.208,1.681-2.038,3.2-3a25.66,25.66,0,0,0,2.6-1.8A4.21,4.21,0,0,0,6.881.177C6.958-.093,7.074-.5,7.506-.5ZM4.161,11.266c1.4,0,2.653-1.133,3.731-3.367a7.043,7.043,0,0,0-.282-6.749,5.222,5.222,0,0,1-1.583,2.1A26.45,26.45,0,0,1,3.33,5.12C1.978,5.974.81,6.712.551,7.564a2.051,2.051,0,0,0,.355,1.59,4.593,4.593,0,0,0,2.711,2.06A2.934,2.934,0,0,0,4.161,11.266Z" transform="matrix(0.087, 0.996, -0.996, 0.087, -6643.91, -188.749)" fill="#bf6c37"/><path d="M4.17,4.225C1.744,6.214.581,5.686.074,7.353S1.758,11.389,3.6,11.739s3.519-.749,4.929-3.671A7.688,7.688,0,0,0,8.21.647C7.111-1.505,6.6,2.236,4.17,4.225Z" transform="translate(-6650.611 -222.666) rotate(27)" fill="#bf6c37"/><path d="M7.566-.5c.554,0,.887.525,1.088.92A9.979,9.979,0,0,1,9.81,4.02a7.84,7.84,0,0,1-.826,4.265C7.7,10.95,6.108,12.3,4.256,12.3a4.02,4.02,0,0,1-.744-.071A5.707,5.707,0,0,1,.061,9.652,3.026,3.026,0,0,1-.4,7.207a2.824,2.824,0,0,1,1.87-1.884A10.583,10.583,0,0,0,3.853,3.838a10.092,10.092,0,0,0,2.114-2.73C6.524.175,6.927-.5,7.566-.5ZM4.256,11.3c1.435,0,2.722-1.161,3.827-3.451A7.241,7.241,0,0,0,7.764.875a1.724,1.724,0,0,0-.21-.336,6.83,6.83,0,0,0-.728,1.083A11.055,11.055,0,0,1,4.487,4.612,11.608,11.608,0,0,1,1.9,6.225C1.1,6.605.776,6.763.553,7.5A2.108,2.108,0,0,0,.917,9.134,4.711,4.711,0,0,0,3.7,11.247,3.018,3.018,0,0,0,4.256,11.3Z" transform="translate(-6650.611 -222.666) rotate(27)" fill="#bf6c37"/></g></svg>