<svg xmlns="http://www.w3.org/2000/svg" width="560" height="560" viewBox="0 0 560 560">
  <g id="グループ_323" data-name="グループ 323" transform="translate(-329.59 -1868.764)">
    <circle id="楕円形_102" data-name="楕円形 102" cx="280" cy="280" r="280" transform="translate(329.59 1868.764)" fill="#9cc9c4"/>
    <path id="パス_146" data-name="パス 146" d="M-7070.477,1863.052l-25.266,14.629-20.245,30.767-25.02,26.059,6.648,18.087-12.356,12.085h19.833V1977.9h10.9v-8.69l13.344-16.617v16.617l15.572-30.533-8.671-10.164,8.671-9.8h16.595l11.655-13.943,2.741-7.129,7.351-1.163,12.181,4.732-8.421,8.325-3.76,18.977-21.747,24.08v31.962l-32.167,9.323V1977.9l-18.2,15.978,11.695,11.957h18.282L-7102.644,2018h-13.344v15.78l20.245,16.617v9.809l-20.245,4.762-10.9-14.572v18.094l10.9,6.249,13.344,12.877,32.167-6.789,12.938,6.789,8.809-6.789v-12.337l-18.458-8.285,4.586-9.809-7.875-7.629,12.938-24.767,12.568-17.043,19.595-3.563,6.93,16.144-6.93,12.436-11.174,7.805V2018h-12.181l-8.809,15.78,17.122,8.988,3.867,12.078,18.1,10.123-11.132,15.859-10.838,12.651v15.933l15.041-15.933,12.341-5.862,32.409-12.877V2060.2l7.805,4.762,15.371-14.572h-15.371l11.152-7.629-18.957-4.622,4.174-20.146h19l4.235,7.974h10.912l8.677-15.933,8.208-40.828,14.582-22.153s-31.6-32.553-72.411-54.312S-7070.477,1863.052-7070.477,1863.052Z" transform="translate(7715.068 22)" fill="#fff"/>
    <path id="パス_147" data-name="パス 147" d="M-7018.437,2153.8l-5.788,15.415-6.376,8.643,6.376,11.634v12.631l11.158-7.847-5.37-8.537,5.37-7.882Z" transform="translate(7739.118 -38.539)" fill="#fff"/>
    <path id="パス_169" data-name="パス 169" d="M4.292,0,2.251,5.439,0,8.489l2.251,4.105v4.457l3.937-2.769-1.9-3.012,1.9-2.781Z" transform="translate(473.256 2313.653) rotate(60)" fill="#fff"/>
    <path id="パス_170" data-name="パス 170" d="M1.574,0,0,2.132,1.574,5l2.752,1.18V2.132Z" transform="translate(455.768 2340.875) rotate(60)" fill="#fff"/>
    <path id="パス_154" data-name="パス 154" d="M5.45.612C4-2.679,3.231,8.377,3.231,8.377L0,12.757l3.231,5.9v6.4l5.654-3.976L6.164,16.751l2.722-3.994S6.9,3.9,5.45.612Z" transform="translate(561.716 2016.362) rotate(45)" fill="#fff"/>
    <path id="パス_148" data-name="パス 148" d="M-7036.667,2161.351l-2.88,5.058,2.88,2.952,2.1-2.952Z" transform="translate(7741.35 -37.037)" fill="#fff"/>
    <path id="パス_149" data-name="パス 149" d="M-7065.783,2194.607l19.944,4.306-5.66,11.4-14.284,2.222-6.5-9.885Z" transform="translate(7740.774 -43.92)" fill="#fff"/>
    <path id="パス_150" data-name="パス 150" d="M-7098.749,2158.81l4.258-2.209,2.952,2.209-5.032,4.052Z" transform="translate(7748.645 -36.335)" fill="#fff"/>
    <path id="パス_151" data-name="パス 151" d="M-7107.223,2162.862l-6.469,2.147v8.917l6.469-8.917Z" transform="translate(7750.586 -41.393)" fill="#fff"/>
    <path id="パス_167" data-name="パス 167" d="M-7107.223,2162.862l-6.469,2.147v8.917l6.469-8.917Z" transform="translate(7673.893 93.891)" fill="#fff"/>
    <path id="パス_152" data-name="パス 152" d="M6.469,0,0,2.147v8.917L6.469,2.147Z" transform="translate(603.126 2114.412) rotate(60)" fill="#fff"/>
    <path id="パス_155" data-name="パス 155" d="M5.408,0,0,1.795V9.25L5.408,1.795Z" transform="translate(541.5 2051.567) rotate(60)" fill="#fff"/>
    <path id="パス_160" data-name="パス 160" d="M2.192,0,0,.728V3.75L2.192.728Z" transform="translate(533.538 2161.555) rotate(60)" fill="#fff"/>
    <path id="パス_161" data-name="パス 161" d="M2.192,0,0,.728V3.75L2.192.728Z" transform="translate(540.531 2180.789) rotate(60)" fill="#fff"/>
    <path id="パス_163" data-name="パス 163" d="M2.192,0,0,.728V3.75L2.192.728Z" transform="translate(544.328 2195.651) rotate(60)" fill="#fff"/>
    <path id="パス_164" data-name="パス 164" d="M2.6.02S.959-.19.411.748-.137,3.77.411,3.77,2.6.748,2.6.748Z" transform="translate(516.184 2213.662) rotate(60)" fill="#fff"/>
    <path id="パス_165" data-name="パス 165" d="M1.981.015S.73-.145.313.569s-.417,2.3,0,2.3S1.981.569,1.981.569Z" transform="translate(510.202 2217.359) rotate(60)" fill="#fff"/>
    <path id="パス_156" data-name="パス 156" d="M3.839,0,.384,1.147S-.48,5.91.384,5.91,3.839,1.147,3.839,1.147Z" transform="translate(486.196 1978.593) rotate(60)" fill="#fff"/>
    <path id="パス_157" data-name="パス 157" d="M1.7,0,.17.508s-.383,2.109,0,2.109S1.7.508,1.7.508Z" transform="translate(479.526 1985.367) rotate(60)" fill="#fff"/>
    <path id="パス_153" data-name="パス 153" d="M7.284,0,0,2.418V12.459L7.284,2.418Z" transform="matrix(-0.259, 0.966, -0.966, -0.259, 650.3, 2154.418)" fill="#fff"/>
    <path id="パス_158" data-name="パス 158" d="M5.521,0,0,1.832V9.443L5.521,1.832Z" transform="matrix(-0.259, 0.966, -0.966, -0.259, 576.581, 2152.668)" fill="#fff"/>
    <path id="パス_159" data-name="パス 159" d="M6.548,0,0,2.173V11.2L6.548,2.173Z" transform="translate(578.071 2169.133) rotate(135)" fill="#fff"/>
    <path id="パス_162" data-name="パス 162" d="M-7107.144,2162.862l-6.548,2.173v9.026l6.548-9.026Z" transform="translate(7665.561 21.725)" fill="#fff"/>
    <path id="パス_166" data-name="パス 166" d="M-7261.676,2319.3l5.965-3.656h6.052l6.082-3.244,4.532-3.89H-7236l4.392,3.89,2.019-3.89-2.019-2.074,4.2-7.159v3.348l5.43,3.811-1.707,5.965-3.723,6.9h-4.2l-4.392-3.656-5.667,3.656,2.626,5.211h-7.485v3.349l-3.129,2.534-6.052-5.884Z" transform="translate(7767.85 -56.564)" fill="#fff"/>
    <path id="パス_168" data-name="パス 168" d="M-7285.484,2357.665h9.453l.923,2.908-.923,4.049,4.4,3.717,4.322,1.906-4.322,8.737-3.476.663-2.437,2.709-4.524-4.984v-2.337l-3.415-10.41Z" transform="translate(7779.79 -74.875)" fill="#354739"/>
    <g id="楕円形_103" data-name="楕円形 103" transform="translate(477.718 2267.353)" fill="none" stroke="#b35417" stroke-width="1.5" stroke-dasharray="2">
      <circle cx="25.5" cy="25.5" r="25.5" stroke="none"/>
      <circle cx="25.5" cy="25.5" r="24.75" fill="none"/>
    </g>
    <g id="楕円形_104" data-name="楕円形 104" transform="translate(558.888 2162)" fill="#9cc9c4" stroke="#b35417" stroke-width="1.5" stroke-dasharray="2">
      <circle cx="110.5" cy="110.5" r="110.5" stroke="none"/>
      <circle cx="110.5" cy="110.5" r="109.75" fill="none"/>
    </g>
    <text id="九州" transform="translate(695.368 1985.233)" fill="#354739" font-size="16" font-family="TsukuARdGothic-Regular, Tsukushi A Round Gothic" letter-spacing="0.1em"><tspan x="0" y="0">九州</tspan></text>
    <line id="線_64" data-name="線 64" x2="59" transform="translate(523.1 2292.47)" fill="none" stroke="#b35417" stroke-width="1" stroke-dasharray="2"/>
    <g id="グループ_287" data-name="グループ 287" transform="translate(620.566 2196.486)">
      <path id="パス_171" data-name="パス 171" d="M-7285.485,2355.982l11.47-5.105,13.671,2.54,12.438-2.54,21.438,6.789v4.167l-3.2,4.334,2.474,3.835,6.482,5.819-2.023,10.807,2.706,4.442-2.706,6.218,23.725,27.017,20.313,8.792,1.988,5.3-11.375,9.7-.9,3.516,2.785,1.486-.8,1.772-3.4,2.212-8.6,33.669-21.7,4.136-15.212,16.916-28.243-31.117V2466.1l-14.063-29.891-3.031-10.375,1.22-7.053-5.447-4.573v-13.1l-2.258-10.781-1.005-14.5,3.264-6.829-3.264-5.576Z" transform="translate(7288.749 -2350.876)" fill="#354739"/>
      <text id="徳之島" transform="translate(19.469 84.514)" fill="#fff" font-size="20" font-family="TsukuARdGothic-Regular, Tsukushi A Round Gothic" letter-spacing="0.1em"><tspan x="0" y="0">徳之島</tspan></text>
      <line id="線_65" data-name="線 65" y2="12" transform="translate(43.969 48.014)" fill="none" stroke="#fff" stroke-width="1"/>
      <circle id="楕円形_105" data-name="楕円形 105" cx="5.5" cy="5.5" r="5.5" transform="translate(38.469 42.514)" fill="#b35417"/>
    </g>
  </g>
</svg>
